<?xml version="1.0" encoding="utf-8"?>
<svg viewBox="5.838 171.412 490.039 73.421" width="490.039" height="73.421" xmlns="http://www.w3.org/2000/svg">
  <path d="M 487.765 171.412 L 487.765 172.66 L 485.267 172.66 L 485.267 178.901 L 484.017 178.901 L 484.017 172.66 L 481.522 172.66 L 481.522 171.412 L 487.765 171.412 Z M 489.011 171.412 L 490.57 171.412 L 492.444 174.654 L 494.316 171.412 L 495.877 171.412 L 495.877 178.901 L 494.628 178.901 L 494.628 173.365 L 492.444 177.153 L 490.26 173.369 L 490.26 178.901 L 489.011 178.901 L 489.011 171.412 Z" style="fill: rgba(0, 0, 0, 0.9);" transform="matrix(1, 0, 0, 1, 0, -7.105427357601002e-15)"/>
  <rect fill="#000564" x="5.838" y="171.589" width="58.134" height="15.959" rx="0.83" style="" transform="matrix(1, 0, 0, 1, 0, -7.105427357601002e-15)"/>
  <path fill="#000564" d="M 88.551 171.503 C 88.828 171.504 89.08 171.671 89.188 171.927 L 98.49 194.458 C 98.602 194.731 98.598 195.036 98.481 195.305 L 87.78 219.81 C 87.645 220.11 87.469 220.137 87.254 219.884 C 87.153 219.767 87.032 219.542 86.893 219.216 C 80.274 203.58 73.618 187.901 66.971 172.293 C 66.812 171.909 67.091 171.487 67.503 171.487 L 88.551 171.503 Z" style="" transform="matrix(1, 0, 0, 1, 0, -7.105427357601002e-15)"/>
  <path fill="#000564" d="M 149.543 171.945 L 118.442 244.451 C 118.389 244.579 118.262 244.662 118.125 244.664 L 98.501 244.695 C 98.249 244.697 98.078 244.441 98.176 244.208 L 129.17 171.682 C 129.223 171.551 129.352 171.467 129.494 171.467 L 149.218 171.458 C 149.47 171.455 149.639 171.713 149.543 171.945 Z" style="" transform="matrix(1, 0, 0, 1, 0, -7.105427357601002e-15)"/>
  <path fill="#000564" d="M 174.673 171.462 L 194.843 171.462 C 194.917 171.462 194.983 171.504 195.015 171.573 L 227.217 244.422 C 227.274 244.545 227.18 244.684 227.045 244.684 L 205.907 244.676 C 205.834 244.676 205.764 244.629 205.736 244.56 L 184.791 192.225 C 184.734 192.093 184.554 192.072 184.467 192.188 C 184.459 192.199 184.452 192.213 184.446 192.225 L 163.423 244.553 C 163.395 244.623 163.328 244.669 163.25 244.669 L 142.524 244.684 C 142.389 244.684 142.297 244.545 142.351 244.422 L 174.499 171.573 C 174.53 171.504 174.598 171.462 174.673 171.462 Z" style="" transform="matrix(1, 0, 0, 1, 0, -7.105427357601002e-15)"/>
  <path fill="#ff0000" d="M 263.708 202.182 L 263.728 171.671 C 263.728 171.555 263.82 171.462 263.934 171.462 L 284.033 171.462 C 284.149 171.462 284.242 171.555 284.242 171.671 L 284.242 180.324 C 284.242 180.376 284.223 180.428 284.187 180.465 L 264.067 202.322 C 263.958 202.438 263.765 202.395 263.716 202.242 C 263.712 202.223 263.708 202.201 263.708 202.182 Z" style="" transform="matrix(1, 0, 0, 1, 0, -7.105427357601002e-15)"/>
  <path fill="#ff0000" d="M 263.859 223.761 L 312.358 171.634 C 312.464 171.523 312.611 171.458 312.768 171.458 C 320.101 171.473 327.413 171.467 334.645 171.438 C 334.829 171.438 334.959 171.519 335.029 171.686 C 335.062 171.767 335.045 171.864 334.984 171.927 L 305.744 203.606 C 305.563 203.802 305.55 204.101 305.714 204.314 L 336.605 244.31 C 336.751 244.494 336.641 244.765 336.409 244.799 C 336.395 244.799 336.38 244.802 336.367 244.802 L 313.523 244.802 C 313.121 244.802 312.745 244.619 312.498 244.305 L 292.262 218.633 C 292.087 218.415 291.761 218.398 291.568 218.602 L 284.4 226.188 C 284.289 226.304 284.228 226.458 284.228 226.616 L 284.248 244.184 C 284.248 244.543 283.954 244.835 283.594 244.833 L 263.945 244.684 C 263.791 244.684 263.712 244.606 263.712 244.451 L 263.728 224.101 C 263.728 223.973 263.775 223.852 263.859 223.761 Z" style="" transform="matrix(1, 0, 0, 1, 0, -7.105427357601002e-15)"/>
  <rect fill="#000564" x="342.261" y="171.579" width="58.134" height="15.971" rx="0.76" style="" transform="matrix(1, 0, 0, 1, 0, -7.105427357601002e-15)"/>
  <path fill="#000564" d="M 459.364 171.462 L 478.643 171.462 C 478.911 171.46 479.082 171.751 478.95 171.984 C 478.95 171.985 478.948 171.988 478.947 171.989 L 451.237 218.405 C 451.205 218.46 451.187 218.519 451.186 218.581 L 451.186 244.319 C 451.186 244.514 451.028 244.669 450.837 244.669 L 430.89 244.684 C 430.697 244.684 430.541 244.529 430.541 244.335 L 430.541 218.267 C 430.539 218.205 430.522 218.143 430.49 218.09 L 402.862 171.989 C 402.725 171.759 402.891 171.464 403.16 171.462 C 403.16 171.462 403.16 171.462 403.16 171.462 L 424.211 171.462 C 424.334 171.464 424.449 171.529 424.513 171.634 L 441.484 200.068 C 441.621 200.293 441.946 200.293 442.082 200.068 L 459.065 171.634 C 459.127 171.529 459.241 171.464 459.364 171.462 Z" style="" transform="matrix(1, 0, 0, 1, 0, -7.105427357601002e-15)"/>
  <rect fill="#000564" x="5.891" y="199.836" width="58.083" height="15.453" rx="0.26" style="" transform="matrix(1, 0, 0, 1, 0, -7.105427357601002e-15)"/>
  <rect fill="#000564" x="342.264" y="199.836" width="58.123" height="15.453" rx="0.66" style="" transform="matrix(1, 0, 0, 1, 0, -7.105427357601002e-15)"/>
  <rect fill="#000564" x="5.854" y="228.714" width="58.123" height="15.959" rx="0.55" style="" transform="matrix(1, 0, 0, 1, 0, -7.105427357601002e-15)"/>
  <rect fill="#000564" x="342.261" y="228.714" width="58.134" height="15.959" rx="0.54" style="" transform="matrix(1, 0, 0, 1, 0, -7.105427357601002e-15)"/>
</svg>