<?xml version="1.0" encoding="utf-8"?>
<svg viewBox="7.312 206.812 483.664 71.609" width="483.664" height="71.609" xmlns="http://www.w3.org/2000/svg">
  <path d="M 479.834 206.812 L 479.834 208.526 L 476.403 208.526 L 476.403 217.098 L 474.685 217.098 L 474.685 208.526 L 471.259 208.526 L 471.259 206.812 L 479.834 206.812 Z M 481.545 206.812 L 483.686 206.812 L 486.262 211.266 L 488.832 206.812 L 490.976 206.812 L 490.976 217.098 L 489.261 217.098 L 489.261 209.495 L 486.262 214.697 L 483.26 209.5 L 483.26 217.098 L 481.545 217.098 L 481.545 206.812 Z" style="fill: rgba(0, 0, 0, 0.9);" transform="matrix(0.9999999999999999, 0, 0, 0.9999999999999999, 0, 0)"/>
  <rect fill="#000564" x="7.312" y="206.986" width="56.7" height="15.565" rx="0.83" style="" transform="matrix(0.9999999999999999, 0, 0, 0.9999999999999999, 0, 0)"/>
  <path fill="#000564" d="M 87.984 206.901 C 88.254 206.902 88.5 207.065 88.605 207.314 L 97.678 229.289 C 97.787 229.556 97.783 229.853 97.669 230.115 L 87.232 254.016 C 87.1 254.308 86.929 254.335 86.719 254.088 C 86.621 253.974 86.503 253.754 86.367 253.437 C 79.911 238.186 73.42 222.894 66.937 207.671 C 66.782 207.297 67.054 206.885 67.455 206.885 L 87.984 206.901 Z" style="" transform="matrix(0.9999999999999999, 0, 0, 0.9999999999999999, 0, 0)"/>
  <path fill="#000564" d="M 147.471 207.332 L 117.138 278.049 C 117.086 278.174 116.962 278.255 116.828 278.257 L 97.689 278.287 C 97.443 278.289 97.276 278.039 97.372 277.812 L 127.601 207.075 C 127.653 206.948 127.778 206.866 127.917 206.866 L 147.154 206.857 C 147.4 206.854 147.565 207.106 147.471 207.332 Z" style="" transform="matrix(0.9999999999999999, 0, 0, 0.9999999999999999, 0, 0)"/>
  <path fill="#000564" d="M 171.981 206.861 L 191.654 206.861 C 191.726 206.861 191.79 206.902 191.821 206.969 L 223.229 278.021 C 223.284 278.141 223.193 278.276 223.061 278.276 L 202.445 278.268 C 202.373 278.268 202.305 278.222 202.278 278.155 L 181.85 227.111 C 181.794 226.983 181.618 226.962 181.534 227.075 C 181.526 227.086 181.519 227.1 181.513 227.111 L 161.009 278.148 C 160.981 278.217 160.916 278.261 160.84 278.261 L 140.625 278.276 C 140.494 278.276 140.404 278.141 140.457 278.021 L 171.811 206.969 C 171.842 206.902 171.908 206.861 171.981 206.861 Z" style="" transform="matrix(0.9999999999999999, 0, 0, 0.9999999999999999, 0, 0)"/>
  <path fill="#ff0000" d="M 258.819 236.823 L 258.839 207.065 C 258.839 206.951 258.929 206.861 259.04 206.861 L 278.643 206.861 C 278.756 206.861 278.847 206.951 278.847 207.065 L 278.847 215.504 C 278.847 215.555 278.828 215.606 278.793 215.642 L 259.169 236.959 C 259.063 237.072 258.875 237.031 258.827 236.881 C 258.823 236.863 258.819 236.841 258.819 236.823 Z" style="" transform="matrix(0.9999999999999999, 0, 0, 0.9999999999999999, 0, 0)"/>
  <path fill="#ff0000" d="M 258.967 257.869 L 306.269 207.029 C 306.372 206.92 306.516 206.857 306.669 206.857 C 313.821 206.872 320.952 206.866 328.006 206.837 C 328.185 206.837 328.312 206.916 328.381 207.079 C 328.413 207.158 328.396 207.253 328.337 207.314 L 299.818 238.212 C 299.642 238.403 299.629 238.694 299.789 238.902 L 329.918 277.911 C 330.06 278.091 329.953 278.355 329.727 278.388 C 329.713 278.388 329.698 278.391 329.686 278.391 L 307.405 278.391 C 307.013 278.391 306.646 278.213 306.405 277.906 L 286.669 252.868 C 286.498 252.655 286.18 252.639 285.992 252.838 L 279.001 260.236 C 278.893 260.35 278.833 260.5 278.833 260.654 L 278.853 277.788 C 278.853 278.139 278.566 278.423 278.215 278.421 L 259.05 278.276 C 258.9 278.276 258.823 278.2 258.823 278.049 L 258.839 258.201 C 258.839 258.076 258.885 257.958 258.967 257.869 Z" style="" transform="matrix(0.9999999999999999, 0, 0, 0.9999999999999999, 0, 0)"/>
  <rect fill="#000564" x="335.434" y="206.975" width="56.7" height="15.577" rx="0.76" style="" transform="matrix(0.9999999999999999, 0, 0, 0.9999999999999999, 0, 0)"/>
  <path fill="#000564" d="M 449.648 206.861 L 468.451 206.861 C 468.712 206.859 468.879 207.143 468.75 207.37 C 468.75 207.371 468.749 207.374 468.748 207.375 L 441.721 252.646 C 441.69 252.699 441.672 252.757 441.672 252.817 L 441.672 277.92 C 441.672 278.11 441.517 278.261 441.331 278.261 L 421.876 278.276 C 421.688 278.276 421.536 278.125 421.536 277.936 L 421.536 252.511 C 421.534 252.45 421.517 252.39 421.486 252.338 L 394.54 207.375 C 394.406 207.15 394.568 206.863 394.831 206.861 C 394.831 206.861 394.831 206.861 394.831 206.861 L 415.362 206.861 C 415.482 206.863 415.594 206.926 415.657 207.029 L 432.209 234.761 C 432.343 234.98 432.659 234.98 432.792 234.761 L 449.356 207.029 C 449.417 206.926 449.528 206.863 449.648 206.861 Z" style="" transform="matrix(0.9999999999999999, 0, 0, 0.9999999999999999, 0, 0)"/>
  <rect fill="#000564" x="7.364" y="234.535" width="56.65" height="15.072" rx="0.26" style="" transform="matrix(0.9999999999999999, 0, 0, 0.9999999999999999, 0, 0)"/>
  <rect fill="#000564" x="335.437" y="234.535" width="56.689" height="15.072" rx="0.66" style="" transform="matrix(0.9999999999999999, 0, 0, 0.9999999999999999, 0, 0)"/>
  <rect fill="#000564" x="7.328" y="262.701" width="56.689" height="15.565" rx="0.55" style="" transform="matrix(0.9999999999999999, 0, 0, 0.9999999999999999, 0, 0)"/>
  <rect fill="#000564" x="335.434" y="262.701" width="56.7" height="15.565" rx="0.54" style="" transform="matrix(0.9999999999999999, 0, 0, 0.9999999999999999, 0, 0)"/>
</svg>