<?xml version="1.0" encoding="UTF-8" standalone="no"?>
<!DOCTYPE svg PUBLIC "-//W3C//DTD SVG 1.1//EN" "http://www.w3.org/Graphics/SVG/1.1/DTD/svg11.dtd">
<svg xmlns="http://www.w3.org/2000/svg" version="1.1" viewBox="0.00 0.00 960.00 260.00">
<rect fill="#000564" x="13.51" y="36.25" width="114.74" height="31.50" rx="0.83"/>
<path fill="#000564" d="
  M 176.76 36.08
  A 1.37 1.36 26.9 0 1 178.02 36.92
  L 196.38 81.39
  A 2.16 2.16 0.0 0 1 196.36 83.06
  L 175.24 131.42
  A 116.06 6.21 81.7 0 1 174.20 131.57
  A 63.61 3.27 79.5 0 1 173.49 130.25
  A 713.11 9.90 67.0 0 0 134.17 37.64
  A 1.15 1.14 78.5 0 1 135.22 36.05
  L 176.76 36.08
  Z"
/>
<path fill="#000564" d="
  M 297.14 36.95
  L 235.76 180.06
  A 0.69 0.69 0.0 0 1 235.13 180.48
  L 196.40 180.54
  A 0.69 0.69 0.0 0 1 195.76 179.58
  L 256.93 36.43
  A 0.69 0.69 0.0 0 1 257.57 36.01
  L 296.50 35.99
  A 0.69 0.69 0.0 0 1 297.14 36.95
  Z"
/>
<path fill="#000564" d="
  M 346.74 36.00
  L 386.55 36.00
  A 0.37 0.37 0.0 0 1 386.89 36.22
  L 450.45 180.00
  A 0.37 0.37 0.0 0 1 450.11 180.52
  L 408.39 180.50
  A 0.37 0.37 0.0 0 1 408.05 180.27
  L 366.71 76.98
  A 0.37 0.37 0.0 0 0 366.03 76.98
  L 324.54 180.26
  A 0.37 0.37 0.0 0 1 324.20 180.49
  L 283.29 180.52
  A 0.37 0.37 0.0 0 1 282.95 180.00
  L 346.40 36.22
  A 0.37 0.37 0.0 0 1 346.74 36.00
  Z"
/>
<path fill="#ff0000" d="
  M 522.47 96.63
  L 522.51 36.41
  A 0.41 0.41 0.0 0 1 522.92 36.00
  L 562.59 36.00
  A 0.41 0.41 0.0 0 1 563.00 36.41
  L 563.00 53.49
  A 0.41 0.41 0.0 0 1 562.89 53.77
  L 523.18 96.91
  A 0.41 0.41 0.0 0 1 522.47 96.63
  Z"
/>
<path fill="#ff0000" d="
  M 522.77 139.22
  L 618.49 36.34
  A 1.12 1.11 -68.3 0 1 619.30 35.99
  A 306.27 13.94 0.2 0 0 662.48 35.95
  A 59.49 6.39 -55.2 0 1 663.24 36.44
  A 0.45 0.45 0.0 0 1 663.15 36.92
  L 605.44 99.44
  A 1.09 1.08 47.7 0 0 605.38 100.84
  L 666.35 179.78
  A 0.60 0.60 0.0 0 1 665.88 180.75
  L 620.79 180.75
  A 2.57 2.56 -19.0 0 1 618.77 179.77
  L 578.83 129.10
  A 0.91 0.91 0.0 0 0 577.46 129.04
  L 563.31 144.01
  A 1.25 1.23 -23.6 0 0 562.97 144.86
  L 563.01 179.53
  A 1.28 1.28 0.0 0 1 561.72 180.81
  L 522.94 180.52
  A 64.89 4.60 -45.0 0 1 522.48 180.06
  L 522.51 139.89
  A 1.00 0.97 67.1 0 1 522.77 139.22
  Z"
/>
<rect fill="#000564" x="677.51" y="36.23" width="114.74" height="31.52" rx="0.76"/>
<path fill="#000564" d="
  M 908.64 36.00
  L 946.69 36.00
  A 0.69 0.69 0.0 0 1 947.29 37.04
  L 892.60 128.65
  A 0.69 0.69 0.0 0 0 892.50 129.00
  L 892.50 179.80
  A 0.69 0.69 0.0 0 1 891.81 180.49
  L 852.44 180.52
  A 0.69 0.69 0.0 0 1 851.75 179.83
  L 851.75 128.38
  A 0.69 0.69 0.0 0 0 851.65 128.03
  L 797.12 37.04
  A 0.69 0.69 0.0 0 1 797.71 36.00
  L 839.26 36.00
  A 0.69 0.69 0.0 0 1 839.85 36.34
  L 873.35 92.46
  A 0.69 0.69 0.0 0 0 874.53 92.46
  L 908.05 36.34
  A 0.69 0.69 0.0 0 1 908.64 36.00
  Z"
/>
<rect fill="#000564" x="13.61" y="92.00" width="114.64" height="30.50" rx="0.26"/>
<rect fill="#000564" x="677.52" y="92.00" width="114.72" height="30.50" rx="0.66"/>
<rect fill="#000564" x="13.54" y="149.00" width="114.72" height="31.50" rx="0.55"/>
<rect fill="#000564" x="677.51" y="149.00" width="114.74" height="31.50" rx="0.54"/>
</svg>
